<svg width="256" height="256" viewBox="0 0 256 256" fill="none" xmlns="http://www.w3.org/2000/svg">
    <rect width="256" height="256" rx="40" fill="#0F0F15"/>
    <path d="M128 48C84.8 48 48 84.8 48 128C48 171.2 84.8 208 128 208C171.2 208 208 171.2 208 128C208 84.8 171.2 48 128 48ZM128 192C92.8 192 64 163.2 64 128C64 92.8 92.8 64 128 64C163.2 64 192 92.8 192 128C192 163.2 163.2 192 128 192Z" fill="#FF2E4D"/>
    <path d="M128 80C102.4 80 80 102.4 80 128C80 153.6 102.4 176 128 176C153.6 176 176 153.6 176 128C176 102.4 153.6 80 128 80ZM128 160C115.2 160 104.533 152 101.333 140.8L146.133 96C155.733 99.2 160 108.8 160 116.8C160 136 144 160 128 160ZM101.333 115.2C104.533 104 115.2 96 128 96C144 96 160 120 160 139.2C160 147.2 155.733 156.8 146.133 160L101.333 115.2Z" fill="#FF2E4D"/>
</svg>